<svg width="35" height="35" viewBox="0 0 35 35" fill="none" xmlns="http://www.w3.org/2000/svg">
<g clip-path="url(#clip0_122_299)">
<path d="M18.0469 24.6094H20.2344V31.1719H18.0469V24.6094Z" fill="#3E352E"/>
<path d="M17.5 16.9531C18.4061 16.9531 19.1406 16.2186 19.1406 15.3125C19.1406 14.4064 18.4061 13.6719 17.5 13.6719C16.5939 13.6719 15.8594 14.4064 15.8594 15.3125C15.8594 16.2186 16.5939 16.9531 17.5 16.9531Z" fill="#3E352E"/>
<path d="M14.7656 24.6094H16.9531V31.1719H14.7656V24.6094Z" fill="#3E352E"/>
<path d="M24.0625 24.6094H25.7031V27.8906H24.0625V24.6094Z" fill="#3E352E"/>
<path d="M1.80463 26.3834C2.06993 26.5561 2.39294 26.6163 2.70265 26.5509C3.01237 26.4854 3.28341 26.2997 3.45619 26.0345L17.4999 4.46626L31.5442 26.0345C31.7199 26.2931 31.9899 26.4726 32.2964 26.5342C32.6029 26.5959 32.9214 26.5349 33.1834 26.3643C33.4454 26.1937 33.63 25.9271 33.6975 25.6219C33.7651 25.3166 33.7102 24.997 33.5447 24.7318L17.9588 0.795092C17.9091 0.718808 17.8412 0.65613 17.7611 0.612742C17.6811 0.569355 17.5915 0.546631 17.5005 0.546631C17.4095 0.546631 17.3199 0.569355 17.2398 0.612742C17.1598 0.65613 17.0919 0.718808 17.0422 0.795092L1.45627 24.7318C1.28354 24.997 1.2232 25.32 1.28852 25.6297C1.35385 25.9394 1.53949 26.2105 1.80463 26.3834Z" fill="#3E352E"/>
<path d="M33.9062 32.2656H0.546875V33.9062C0.546875 34.0513 0.604492 34.1904 0.707051 34.2929C0.80961 34.3955 0.94871 34.4531 1.09375 34.4531H33.9062C34.0513 34.4531 34.1904 34.3955 34.2929 34.2929C34.3955 34.1904 34.4531 34.0513 34.4531 33.9062V32.8125C34.4531 32.6675 34.3955 32.5284 34.2929 32.4258C34.1904 32.3232 34.0513 32.2656 33.9062 32.2656Z" fill="#3E352E"/>
<path d="M33.3594 15.8597C33.3585 14.7605 32.9439 13.7019 32.198 12.8945C31.4521 12.0871 30.4296 11.59 29.3339 11.5022C29.5859 10.8057 29.5947 10.0444 29.3586 9.34237C29.1226 8.64031 28.6557 8.0389 28.0341 7.63618C27.4125 7.23345 26.6728 7.05317 25.9355 7.1247C25.1983 7.19624 24.5071 7.51538 23.9745 8.0301L31.4339 19.4849C32.0271 19.0845 32.513 18.5446 32.8487 17.9124C33.1845 17.2803 33.3598 16.5754 33.3594 15.8597Z" fill="#3E352E"/>
<path d="M8.75 9.84375C8.75 9.69871 8.69238 9.55961 8.58982 9.45705C8.48726 9.35449 8.34817 9.29688 8.20312 9.29688H6.01562C5.87058 9.29688 5.73149 9.35449 5.62893 9.45705C5.52637 9.55961 5.46875 9.69871 5.46875 9.84375V16.5638L8.75 11.5248V9.84375Z" fill="#3E352E"/>
<path d="M30.625 31.1714V26.6269L17.5 6.4707L4.375 26.6269V26.8456C4.55556 26.8137 4.73852 26.7972 4.92188 26.7964H4.93117C5.18493 26.4581 5.51371 26.1832 5.89166 25.9934C6.26962 25.8036 6.68645 25.7041 7.10938 25.7027C7.48612 25.703 7.85865 25.782 8.20312 25.9345V24.062C8.20312 23.917 8.26074 23.7779 8.3633 23.6753C8.46586 23.5728 8.60496 23.5152 8.75 23.5152H11.4844C11.6294 23.5152 11.7685 23.5728 11.8711 23.6753C11.9736 23.7779 12.0312 23.917 12.0312 24.062V28.437C12.0312 28.5821 11.9736 28.7212 11.8711 28.8237C11.7685 28.9263 11.6294 28.9839 11.4844 28.9839H9.7825C9.76828 29.0539 9.75789 29.125 9.7382 29.1934C10.3448 29.6944 10.7518 30.3961 10.8855 31.1714H13.6719V24.062C13.6719 23.917 13.7295 23.7779 13.8321 23.6753C13.9346 23.5728 14.0737 23.5152 14.2188 23.5152H20.7812C20.9263 23.5152 21.0654 23.5728 21.1679 23.6753C21.2705 23.7779 21.3281 23.917 21.3281 24.062V31.1714H30.625ZM17.5 18.0464C16.9592 18.0464 16.4305 17.886 15.9809 17.5856C15.5312 17.2851 15.1807 16.8581 14.9738 16.3584C14.7668 15.8588 14.7127 15.309 14.8182 14.7786C14.9237 14.2482 15.1841 13.7609 15.5665 13.3785C15.9489 12.9961 16.4361 12.7357 16.9665 12.6302C17.497 12.5247 18.0468 12.5788 18.5464 12.7858C19.046 12.9928 19.4731 13.3432 19.7736 13.7929C20.074 14.2426 20.2344 14.7712 20.2344 15.312C20.2335 16.037 19.9451 16.732 19.4325 17.2446C18.9199 17.7572 18.2249 18.0455 17.5 18.0464ZM22.9688 24.062C22.9688 23.917 23.0264 23.7779 23.1289 23.6753C23.2315 23.5728 23.3706 23.5152 23.5156 23.5152H26.25C26.395 23.5152 26.5341 23.5728 26.6367 23.6753C26.7393 23.7779 26.7969 23.917 26.7969 24.062V28.437C26.7969 28.5821 26.7393 28.7212 26.6367 28.8237C26.5341 28.9263 26.395 28.9839 26.25 28.9839H23.5156C23.3706 28.9839 23.2315 28.9263 23.1289 28.8237C23.0264 28.7212 22.9688 28.5821 22.9688 28.437V24.062Z" fill="#3E352E"/>
<path d="M10.9375 27.8906V24.6094H9.29688V26.8138C9.53833 27.1321 9.70641 27.4998 9.78906 27.8906H10.9375Z" fill="#3E352E"/>
<path d="M8.24145 29.6205C8.42413 29.4469 8.56429 29.2336 8.651 28.997C8.73772 28.7605 8.76866 28.5071 8.74141 28.2566C8.71416 28.0062 8.62945 27.7654 8.49389 27.553C8.35833 27.3406 8.17556 27.1624 7.95984 27.0322C7.74412 26.9021 7.50126 26.8235 7.25018 26.8025C6.9991 26.7816 6.74658 26.8189 6.51228 26.9116C6.27799 27.0042 6.06824 27.1497 5.89939 27.3367C5.73054 27.5237 5.60713 27.7472 5.53879 27.9897C5.25791 27.9012 4.96181 27.8715 4.66895 27.9025C4.3761 27.9335 4.09277 28.0245 3.83666 28.1699C3.58055 28.3153 3.35715 28.5119 3.1804 28.7474C3.00364 28.983 2.87733 29.2524 2.80934 29.539C2.78418 29.5379 2.76012 29.5313 2.73441 29.5313C2.25055 29.5322 1.78068 29.6938 1.39867 29.9908C1.01667 30.2877 0.744171 30.7032 0.624023 31.1719H9.76668C9.66989 30.8027 9.47819 30.4653 9.21062 30.1931C8.94306 29.921 8.60893 29.7235 8.24145 29.6205Z" fill="#3E352E"/>
</g>
<defs>
<clipPath id="clip0_122_299">
<rect width="35" height="35" fill="white"/>
</clipPath>
</defs>
</svg>
