<svg width="35" height="32" viewBox="0 0 35 32" fill="none" xmlns="http://www.w3.org/2000/svg">
<path d="M9.49245 16.8184C9.18686 16.5299 9.00613 16.1874 9.00613 15.7796C9.00613 13.6818 10.9689 10.9499 14.0004 9.70431C13.0972 8.69782 12.5158 7.33154 12.4104 6.00024C11.1972 6.39257 10.11 7.33707 9.73583 8.43567L7.76907 14.2187C7.31014 15.562 8.08321 16.6648 9.49245 16.8184Z" fill="#3E352E"/>
<path d="M25.9935 15.7796C25.9935 16.1874 25.8134 16.5299 25.5078 16.8184C26.9165 16.6661 27.6903 15.562 27.2313 14.2185L25.2649 8.43563C24.8913 7.33705 23.8027 6.39389 22.5901 6.00024C22.4873 7.33151 21.9044 8.69643 21 9.70424C24.0297 10.95 25.9935 13.6821 25.9935 15.7796Z" fill="#3E352E"/>
<path d="M15.5375 9.64481C12.0962 10.494 9.5459 13.3961 9.5459 15.5482C9.5459 18.0904 25.455 18.0904 25.455 15.5482C25.455 13.3961 22.9056 10.4927 19.4629 9.64481C20.9015 8.70292 21.8937 6.85004 21.8937 5.17891C21.8937 2.82003 19.9292 0.909424 17.5013 0.909424C15.0747 0.909424 13.1088 2.82003 13.1088 5.17891C13.1074 6.84869 14.0989 8.70292 15.5375 9.64481ZM17.4999 10.2674C17.8819 10.2674 18.2481 10.1948 18.5993 10.0712L17.8698 10.8805H17.8531L19.7312 15.2889L17.4999 17.4527L15.2683 15.2889L17.1466 10.8805H17.1269L16.3983 10.0699C16.7516 10.1934 17.1176 10.2674 17.4999 10.2674Z" fill="#3E352E"/>
<path d="M35 20.4608V18.8515L30.5133 15.5129L34.0425 18.8515H0.956869L4.48587 15.5129L0 18.8515V20.4608H3.25422V30.1726H2.4459V31.0842H1.24132V31.9792H33.7587V31.0842H32.5533V30.1726H31.7452V20.4608H35Z" fill="#3E352E"/>
</svg>
