<svg width="35" height="35" viewBox="0 0 35 35" fill="none" xmlns="http://www.w3.org/2000/svg">
<g clip-path="url(#clip0_122_311)">
<path d="M11.2656 23.1328V24.7734C11.2656 26.9609 9.46094 28.7656 7.27344 28.7656H4.8125V25.7578H7.21875C7.76562 25.7578 8.20313 25.3203 8.20313 24.7734V23.1328C8.69531 23.2969 9.1875 23.4063 9.67969 23.4063C10.2813 23.4063 10.7734 23.2969 11.2656 23.1328Z" fill="#3E352E"/>
<path d="M29.203 17.1176L27.8359 20.1254C26.8515 22.0942 24.4452 22.9145 22.4765 21.8754L3.71867 12.4145C2.95304 12.0317 2.6796 11.1567 3.06242 10.3911L6.56242 3.50045C6.78117 3.06295 7.21867 2.8442 7.71085 2.89888H8.47648L6.6171 6.61763C6.34367 7.10982 6.28898 7.71138 6.50773 8.25826C6.67179 8.80513 7.0546 9.24263 7.54679 9.51607L22.5859 17.1723C23.5155 17.6645 24.6093 17.8833 25.6484 17.8833C26.5234 17.8833 27.3437 17.7192 28.1093 17.4458C28.4374 17.227 28.8202 17.1723 29.203 17.1176Z" fill="#3E352E"/>
<path d="M34.1797 14.2187L10.9922 2.46091C10.5 2.18748 9.89841 2.40623 9.62498 2.89841L7.49216 7.10935C7.21873 7.60154 7.43748 8.2031 7.92966 8.47654L22.9687 16.1328C24.3906 16.8437 26.0859 16.9531 27.6172 16.3515C29.0937 15.75 30.789 15.8594 32.2656 16.5703L32.8672 16.8437C33.5781 17.2265 34.5078 16.8984 34.8906 16.1875C35 15.9687 35.0547 15.75 35.0547 15.5312C35 14.9844 34.7265 14.4922 34.1797 14.2187ZM11.9219 7.05466C11.6484 7.54685 11.0469 7.7656 10.5547 7.49216C10.0625 7.21873 9.84373 6.61716 10.1172 6.12498C10.3906 5.63279 10.9922 5.41404 11.4844 5.68748C11.9765 5.96091 12.1953 6.56248 11.9219 7.05466Z" fill="#3E352E"/>
<path d="M31.0625 19.4141L30.0781 21.3828C29.9687 21.6016 29.6406 21.7109 29.4219 21.6016L28.5469 21.1641C28.6562 21 28.7656 20.7813 28.875 20.6172L29.9141 18.3203L30.8438 18.7578C31.0625 18.8672 31.1719 19.1953 31.0625 19.4141Z" fill="#3E352E"/>
<path d="M7.43745 15.5859L6.61714 17.1719C5.74214 18.9219 6.45308 21 8.14839 21.875C9.89839 22.75 11.9765 22.0391 12.8515 20.3438L13.6718 18.7578L7.43745 15.5859ZM10.8281 19.3047C10.5546 19.9062 9.8437 20.125 9.24214 19.8516C8.64058 19.5781 8.42183 18.8672 8.69526 18.2656C8.9687 17.6641 9.67964 17.4453 10.2812 17.7188C10.8828 17.9922 11.1015 18.7031 10.8281 19.3047Z" fill="#3E352E"/>
<path d="M1.69531 21.875H0.546875C0.21875 21.875 0 22.1484 0 22.4219V32.1016C0 32.4297 0.273438 32.6484 0.546875 32.6484H1.69531C2.78906 32.6484 3.71875 31.7734 3.71875 30.625V23.8437C3.71875 22.75 2.78906 21.875 1.69531 21.875Z" fill="#3E352E"/>
</g>
<defs>
<clipPath id="clip0_122_311">
<rect width="35" height="35" fill="white"/>
</clipPath>
</defs>
</svg>
