<svg width="35" height="35" viewBox="0 0 35 35" fill="none" xmlns="http://www.w3.org/2000/svg">
<path d="M4.35742 12.5079H1.62311C1.3209 12.5079 1.07617 12.263 1.07617 11.9612C1.07617 11.659 1.3209 11.4141 1.62311 11.4141H4.35742C4.65943 11.4141 4.90436 11.659 4.90436 11.9612C4.90436 12.263 4.65943 12.5079 4.35742 12.5079Z" fill="#3E352E"/>
<path d="M3.74898 20.4378C3.50144 20.4378 3.28495 20.2716 3.22086 20.0325C3.15677 19.7933 3.26111 19.541 3.47561 19.417L5.84362 18.05C6.10477 17.9016 6.43722 17.9917 6.58743 18.252C6.73783 18.5124 6.64971 18.845 6.39036 18.9973L4.02235 20.3643C3.93923 20.4124 3.84491 20.4378 3.74898 20.4378Z" fill="#3E352E"/>
<path d="M31.2168 20.4375C31.1209 20.4377 31.0265 20.4124 30.9432 20.364L28.5754 18.9969C28.405 18.8998 28.2992 18.7187 28.2988 18.5229C28.2984 18.3266 28.4032 18.145 28.5734 18.0472C28.7434 17.9495 28.9529 17.9505 29.1223 18.0496L31.4904 19.4167C31.7046 19.5407 31.809 19.793 31.7449 20.0321C31.6808 20.2713 31.4643 20.4375 31.2168 20.4375Z" fill="#3E352E"/>
<path d="M33.3418 12.5079H30.6075C30.3055 12.5079 30.0605 12.263 30.0605 11.9612C30.0605 11.659 30.3055 11.4141 30.6075 11.4141H33.3418C33.644 11.4141 33.8887 11.659 33.8887 11.9612C33.8887 12.263 33.644 12.5079 33.3418 12.5079Z" fill="#3E352E"/>
<path d="M28.8499 5.94512C28.6021 5.94512 28.3855 5.77889 28.3216 5.53977C28.2575 5.30084 28.3618 5.0485 28.5761 4.92453L30.9441 3.55748C31.1136 3.45835 31.3228 3.45734 31.4931 3.55488C31.6633 3.65281 31.768 3.83405 31.7678 4.03032C31.7672 4.22659 31.6617 4.40763 31.4911 4.50476L29.1231 5.87182C29.0401 5.91988 28.9456 5.94532 28.8499 5.94512Z" fill="#3E352E"/>
<path d="M6.11546 5.94556C6.01953 5.94556 5.9252 5.92033 5.84209 5.87226L3.47408 4.50521C3.21473 4.353 3.12701 4.02015 3.27721 3.7598C3.42742 3.49944 3.75987 3.40932 4.02102 3.55792L6.38903 4.92498C6.60332 5.04894 6.70787 5.30129 6.64378 5.54021C6.57969 5.77933 6.363 5.94556 6.11546 5.94556Z" fill="#3E352E"/>
<path d="M14.2012 13.0547H13.6542C13.0502 13.0547 12.5605 13.5444 12.5605 14.1484C12.5605 14.7524 13.0502 15.2421 13.6542 15.2421H15.2951V14.1484C15.2951 13.5444 14.8052 13.0547 14.2012 13.0547Z" fill="#3E352E"/>
<path d="M15.4951 32.7422H20.2171C20.8211 32.7422 21.3108 32.2525 21.3108 31.6483V29.4609H21.0767L15.4951 32.7422Z" fill="#3E352E"/>
<path d="M21.8582 26.1797H13.1083C12.5043 26.1797 12.0146 26.6696 12.0146 27.2734C12.0146 27.8774 12.5043 28.3675 13.1083 28.3675H21.8582C22.4622 28.3675 22.9519 27.8774 22.9519 27.2734C22.9519 26.6696 22.4622 26.1797 21.8582 26.1797Z" fill="#3E352E"/>
<path d="M13.6543 29.4609V31.6483C13.6551 31.9215 13.7586 32.1844 13.9447 32.3843L18.918 29.4609H13.6543Z" fill="#3E352E"/>
<path d="M17.4833 16.3359H16.3896V25.0858H18.577V16.3359H17.4833Z" fill="#3E352E"/>
<path d="M22.4044 14.1484C22.4044 13.5444 21.9148 13.0547 21.3107 13.0547H20.7638C20.1598 13.0547 19.6699 13.5444 19.6699 14.1484V15.2421H21.3107C21.9148 15.2421 22.4044 14.7524 22.4044 14.1484Z" fill="#3E352E"/>
<path d="M27.2717 11.058C26.8092 5.99269 22.5615 2.11523 17.4754 2.11523C12.3889 2.11523 8.14112 5.99269 7.67889 11.058C7.43697 13.7793 8.03298 15.481 9.29429 17.8522C9.67841 18.5289 10.1176 19.1728 10.6069 19.7778C10.965 20.2482 11.3353 20.7345 11.6627 21.2512C12.3993 22.4142 12.8767 23.7221 13.0628 25.0864H15.2952V16.3365H13.6544C12.4462 16.3365 11.4668 15.3572 11.4668 14.149C11.4668 12.9409 12.4462 11.9616 13.6544 11.9616H14.2013C15.4096 11.9616 16.3889 12.9409 16.3889 14.149V15.2426H18.5763V14.149C18.5763 12.9409 19.5556 11.9616 20.7638 11.9616H21.3108C22.519 11.9616 23.4983 12.9409 23.4983 14.149C23.4983 15.3572 22.519 16.3365 21.3108 16.3365H19.67V25.0864H21.8898C22.0756 23.7225 22.5531 22.4144 23.2893 21.2512C23.6173 20.7345 23.9872 20.2482 24.3455 19.7778C24.8346 19.1728 25.2734 18.5289 25.6579 17.8522C26.9184 15.4816 27.5144 13.7797 27.2717 11.058ZM17.4776 4.3052C13.5503 4.36849 10.284 7.34553 9.85845 11.2506C9.83322 11.5334 9.59569 11.7497 9.31171 11.7487C9.29589 11.7487 9.27947 11.7487 9.26304 11.7487C8.96224 11.7219 8.73993 11.4565 8.76657 11.1559C9.25063 6.68964 12.9855 3.28342 17.477 3.21132C17.7792 3.21132 18.0241 3.45625 18.0241 3.75846C18.0241 4.06027 17.7792 4.3052 17.477 4.3052H17.4776Z" fill="#3E352E"/>
</svg>
