<svg width="27" height="15" viewBox="0 0 27 15" fill="none" xmlns="http://www.w3.org/2000/svg">
<path d="M26.412 13.3969C26.3805 13.329 26.3511 13.2728 26.3239 13.2277C25.8728 12.4152 25.0107 11.418 23.7383 10.2357L23.7114 10.2087L23.6979 10.1954L23.6843 10.1818H23.6707C23.0932 9.63125 22.7275 9.26108 22.5743 9.07157C22.2941 8.71055 22.2313 8.34513 22.3845 7.97487C22.4927 7.69513 22.8991 7.10435 23.6028 6.20172C23.973 5.72336 24.2661 5.33997 24.4826 5.05112C26.044 2.97532 26.721 1.64886 26.5133 1.07121L26.4326 0.936225C26.3785 0.854957 26.2386 0.780611 26.0132 0.712808C25.7873 0.645148 25.4986 0.633959 25.1466 0.67905L21.248 0.705981C21.1848 0.683601 21.0947 0.685687 20.9772 0.712808C20.8598 0.739929 20.8011 0.753538 20.8011 0.753538L20.7333 0.787439L20.6794 0.828167C20.6343 0.855098 20.5846 0.902466 20.5304 0.970173C20.4765 1.03764 20.4314 1.11683 20.3954 1.20705C19.9709 2.29905 19.4883 3.31434 18.9467 4.25285C18.6128 4.81248 18.3061 5.29748 18.026 5.70814C17.7463 6.11865 17.5117 6.42111 17.3223 6.61498C17.1327 6.80905 16.9615 6.96452 16.8078 7.08197C16.6543 7.19946 16.5371 7.2491 16.456 7.23094C16.3747 7.21278 16.2981 7.19477 16.2256 7.17675C16.0994 7.09548 15.9978 6.98496 15.9212 6.84509C15.8443 6.70521 15.7925 6.52917 15.7655 6.31708C15.7385 6.10485 15.7226 5.92231 15.7181 5.76883C15.7138 5.61554 15.7158 5.39871 15.7249 5.11897C15.7343 4.83908 15.7385 4.64971 15.7385 4.55043C15.7385 4.20743 15.7452 3.83518 15.7586 3.43358C15.7723 3.03198 15.7833 2.71379 15.7926 2.47937C15.8018 2.24472 15.8061 1.99646 15.8061 1.73473C15.8061 1.473 15.7901 1.26774 15.7586 1.11877C15.7275 0.969983 15.6798 0.82556 15.6169 0.685545C15.5536 0.545673 15.4609 0.437474 15.3394 0.360663C15.2176 0.283946 15.0661 0.223066 14.8859 0.177833C14.4075 0.0695863 13.7984 0.0110297 13.0582 0.00192615C11.3797 -0.0160913 10.3012 0.0922976 9.82285 0.326951C9.63334 0.426094 9.46184 0.561557 9.3085 0.732912C9.14601 0.93153 9.12335 1.03992 9.24065 1.05775C9.78222 1.13887 10.1656 1.33294 10.3913 1.63976L10.4726 1.80234C10.5358 1.91964 10.599 2.12732 10.6622 2.42508C10.7253 2.72284 10.766 3.05223 10.7839 3.41305C10.829 4.07197 10.829 4.63601 10.7839 5.10522C10.7388 5.57462 10.6961 5.94004 10.6554 6.20177C10.6146 6.4635 10.5537 6.67558 10.4726 6.83797C10.3913 7.00042 10.3372 7.0997 10.31 7.13574C10.283 7.17177 10.2604 7.19448 10.2425 7.2034C10.1252 7.24835 10.0032 7.27125 9.87691 7.27125C9.75045 7.27125 9.59711 7.208 9.41665 7.08159C9.23624 6.95518 9.049 6.78155 8.85494 6.56041C8.66087 6.33922 8.44201 6.03013 8.19825 5.63308C7.95468 5.23604 7.70197 4.76678 7.44024 4.22531L7.2237 3.83262C7.08833 3.58 6.90341 3.21216 6.66876 2.72943C6.43396 2.24652 6.22643 1.77939 6.04602 1.32815C5.9739 1.13864 5.86556 0.994355 5.72119 0.895069L5.65343 0.85434C5.60839 0.818305 5.53608 0.780042 5.43689 0.739265C5.33756 0.698537 5.23391 0.669329 5.12552 0.651359L1.41635 0.678291C1.03732 0.678291 0.780143 0.764158 0.644728 0.935655L0.590534 1.01678C0.56346 1.06197 0.549805 1.13413 0.549805 1.23346C0.549805 1.33275 0.576878 1.4546 0.631073 1.59889C1.17254 2.87149 1.76138 4.0988 2.39759 5.28103C3.03379 6.46326 3.58664 7.41558 4.05581 8.13713C4.52507 8.8592 5.00338 9.54068 5.49075 10.1813C5.97812 10.8221 6.30073 11.2327 6.45857 11.4131C6.6166 11.5939 6.74074 11.729 6.83096 11.8192L7.16946 12.1441C7.38604 12.3607 7.7041 12.6201 8.12376 12.9224C8.54352 13.2249 9.00823 13.5226 9.51812 13.8162C10.0281 14.1092 10.6214 14.3484 11.2983 14.5334C11.9752 14.7185 12.634 14.7928 13.2748 14.757H14.8316C15.1473 14.7297 15.3865 14.6304 15.5491 14.4591L15.6029 14.3912C15.6392 14.3373 15.6731 14.2537 15.7044 14.1411C15.736 14.0283 15.7518 13.904 15.7518 13.7688C15.7425 13.3808 15.7721 13.0311 15.8396 12.7198C15.9071 12.4086 15.984 12.1739 16.07 12.0159C16.1559 11.858 16.2529 11.7248 16.3609 11.6168C16.4691 11.5085 16.5462 11.4429 16.5914 11.4204C16.6364 11.3977 16.6723 11.3823 16.6993 11.373C16.9159 11.3008 17.1708 11.3707 17.4644 11.583C17.7578 11.7951 18.0329 12.057 18.2903 12.3682C18.5475 12.6797 18.8566 13.0292 19.2175 13.4172C19.5786 13.8053 19.8944 14.0938 20.165 14.2836L20.4357 14.4461C20.6164 14.5545 20.8511 14.6537 21.1399 14.744C21.4283 14.8342 21.6809 14.8567 21.8978 14.8116L25.3632 14.7576C25.7059 14.7576 25.9726 14.7008 26.1618 14.5882C26.3514 14.4754 26.464 14.3511 26.5003 14.216C26.5365 14.0806 26.5385 13.9271 26.5072 13.7555C26.4751 13.5843 26.4435 13.4645 26.412 13.3969Z" fill="#E5AE78"/>
</svg>
