<svg width="20" height="19" viewBox="0 0 20 19" fill="none" xmlns="http://www.w3.org/2000/svg">
<g clip-path="url(#clip0_122_159)">
<path d="M10.0522 0H10.0474C4.80937 0 0.549805 4.26075 0.549805 9.5C0.549805 11.5781 1.21955 13.5043 2.35837 15.0682L1.17443 18.5974L4.82599 17.4301C6.32818 18.4253 8.12012 19 10.0522 19C15.2902 19 19.5498 14.7381 19.5498 9.5C19.5498 4.26194 15.2902 0 10.0522 0ZM15.58 13.4152C15.3508 14.0624 14.4412 14.5991 13.7156 14.7559C13.2192 14.8616 12.5709 14.9459 10.3882 14.041C7.59643 12.8844 5.79855 10.0474 5.65843 9.86337C5.52424 9.67931 4.5303 8.36119 4.5303 6.99794C4.5303 5.63469 5.22262 4.97088 5.50168 4.68587C5.73087 4.45194 6.10968 4.34506 6.47305 4.34506C6.59062 4.34506 6.6963 4.351 6.7913 4.35575C7.07037 4.36762 7.21049 4.38425 7.39455 4.82481C7.62374 5.377 8.18187 6.74025 8.24837 6.88038C8.31605 7.0205 8.38374 7.2105 8.28874 7.39456C8.19968 7.58456 8.1213 7.66887 7.98118 7.83037C7.84105 7.99187 7.70805 8.11537 7.56793 8.28875C7.43968 8.43956 7.2948 8.60106 7.4563 8.88013C7.6178 9.15325 8.17593 10.0641 8.99768 10.7956C10.0581 11.7396 10.9179 12.0413 11.2254 12.1695C11.4546 12.2645 11.7277 12.2419 11.8952 12.0638C12.1077 11.8346 12.3702 11.4546 12.6374 11.0806C12.8274 10.8122 13.0672 10.7789 13.319 10.8739C13.5755 10.963 14.9328 11.6339 15.2119 11.7729C15.4909 11.913 15.675 11.9795 15.7427 12.0971C15.8092 12.2146 15.8092 12.7668 15.58 13.4152Z" fill="#E5AE78"/>
</g>
<defs>
<clipPath id="clip0_122_159">
<rect width="19" height="19" fill="white" transform="translate(0.549805)"/>
</clipPath>
</defs>
</svg>
